<?xml version="1.0" encoding="utf-8"?>
<!-- Generator: Adobe Illustrator 16.0.0, SVG Export Plug-In . SVG Version: 6.00 Build 0)  -->
<!DOCTYPE svg PUBLIC "-//W3C//DTD SVG 1.1//EN" "http://www.w3.org/Graphics/SVG/1.1/DTD/svg11.dtd">
<svg version="1.1" id="Layer_1" xmlns="http://www.w3.org/2000/svg" xmlns:xlink="http://www.w3.org/1999/xlink" x="0px" y="0px"
	 width="34.553px" height="34.553px" viewBox="0 0 34.553 34.553" enable-background="new 0 0 34.553 34.553" xml:space="preserve">
<g>
	<circle fill="#FFFFFF" cx="17.276" cy="17.276" r="16.524"/>
	<g>
		<path fill="#D2D3D4" d="M17.276,34.553C7.75,34.553,0,26.803,0,17.276S7.75,0,17.276,0s17.276,7.75,17.276,17.276
			S26.803,34.553,17.276,34.553z M17.276,2C8.853,2,2,8.853,2,17.276C2,25.7,8.853,32.553,17.276,32.553S32.553,25.7,32.553,17.276
			C32.553,8.853,25.7,2,17.276,2z"/>
		<g>
			<path fill="#D2D3D4" d="M15.773,17.304l-5.755-6.834h2.854l4.366,5.365l4.347-5.365h2.825l-5.755,6.834l6.059,7.166h-2.84
				l-4.636-5.671l-4.685,5.671h-2.84L15.773,17.304z"/>
		</g>
	</g>
</g>
</svg>
