<?xml version="1.0" encoding="utf-8"?>
<!-- Generator: Adobe Illustrator 16.0.0, SVG Export Plug-In . SVG Version: 6.00 Build 0)  -->
<!DOCTYPE svg PUBLIC "-//W3C//DTD SVG 1.1//EN" "http://www.w3.org/Graphics/SVG/1.1/DTD/svg11.dtd">
<svg version="1.1" id="Layer_1" xmlns="http://www.w3.org/2000/svg" xmlns:xlink="http://www.w3.org/1999/xlink" x="0px" y="0px"
	 width="60.666px" height="60.667px" viewBox="0 0 60.666 60.667" enable-background="new 0 0 60.666 60.667" xml:space="preserve">
<path fill="#BDBEC0" d="M60.666,48.667c0,6.627-5.372,12-12,12H12c-6.628,0-12-5.373-12-12V12C0,5.373,5.372,0,12,0h36.666
	c6.628,0,12,5.373,12,12V48.667z"/>
<g>
	<g>
		<g>
			<path fill="#818285" d="M17.84,23.027c-3.445,0-6.244,3.147-6.244,7.02c0,3.864,2.799,7.015,6.244,7.015s6.244-3.15,6.244-7.015
				C24.084,26.175,21.285,23.027,17.84,23.027z"/>
			<path fill="#818285" d="M23.99,34.646h-1.103c-1.299,1.417-3.083,2.293-5.048,2.293s-3.75-0.876-5.049-2.293h-1.103
				c-3.499,0-6.334,2.615-6.334,5.857v6.434h24.97v-6.434C30.324,37.262,27.489,34.646,23.99,34.646z"/>
		</g>
		<path fill="#BDBEC0" d="M23.99,34.103h-0.434c0.675-1.174,1.069-2.561,1.069-4.056c0-4.171-3.045-7.563-6.786-7.563
			c-3.742,0-6.787,3.393-6.787,7.563c0,1.495,0.396,2.882,1.07,4.056h-0.435c-3.792,0-6.876,2.873-6.876,6.401v6.974h26.055v-6.974
			C30.867,36.976,27.783,34.103,23.99,34.103z M17.84,23.571c3.145,0,5.702,2.904,5.702,6.476c0,2.529-1.288,4.718-3.155,5.782
			c-0.799,0.37-1.66,0.566-2.547,0.566c-0.889,0-1.751-0.197-2.549-0.567c-1.867-1.065-3.151-3.253-3.151-5.781
			C12.14,26.476,14.695,23.571,17.84,23.571z M29.781,46.394H5.898v-5.89c0-2.933,2.597-5.317,5.79-5.317h0.87
			c0.645,0.663,1.379,1.188,2.168,1.568c0.934,0.541,1.991,0.851,3.113,0.851c1.121,0,2.178-0.31,3.111-0.85
			c0.789-0.38,1.525-0.905,2.17-1.569h0.869c3.193,0,5.791,2.385,5.791,5.317V46.394z"/>
	</g>
	<g>
		<g>
			<path fill="#6E6F72" d="M22.994,23.688c-3.445,0-6.244,3.147-6.244,7.023c0,3.865,2.799,7.015,6.244,7.015
				s6.244-3.149,6.244-7.015C29.238,26.836,26.439,23.688,22.994,23.688z"/>
			<path fill="#6E6F72" d="M29.145,35.308h-1.102c-1.299,1.417-3.082,2.294-5.049,2.294c-1.965,0-3.749-0.877-5.048-2.294h-1.104
				c-3.499,0-6.334,2.619-6.334,5.858v6.433h24.971v-6.433C35.479,37.927,32.644,35.308,29.145,35.308z"/>
		</g>
		<path fill="#BDBEC0" d="M29.145,34.764h-0.433c0.674-1.173,1.069-2.561,1.069-4.052c0-4.174-3.045-7.563-6.787-7.563
			s-6.786,3.39-6.786,7.563c0,1.491,0.395,2.879,1.069,4.052h-0.435c-3.792,0-6.876,2.874-6.876,6.402v6.978h26.055v-6.978
			C36.021,37.638,32.938,34.764,29.145,34.764z M22.994,24.232c3.145,0,5.703,2.905,5.703,6.479c0,2.525-1.289,4.714-3.156,5.778
			c-0.798,0.374-1.66,0.571-2.547,0.571c-0.889,0-1.75-0.198-2.549-0.572c-1.867-1.065-3.151-3.253-3.151-5.777
			C17.294,27.138,19.85,24.232,22.994,24.232z M34.936,47.055H11.053v-5.889c0-2.929,2.598-5.314,5.79-5.314h0.87
			c0.646,0.663,1.379,1.184,2.17,1.568c0.932,0.537,1.989,0.847,3.111,0.847c1.121,0,2.178-0.31,3.111-0.846
			c0.789-0.384,1.525-0.905,2.17-1.569h0.869c3.193,0,5.791,2.386,5.791,5.314V47.055z"/>
	</g>
	<g>
		<g>
			<path fill="#818285" d="M43.785,23.027c-3.445,0-6.244,3.147-6.244,7.02c0,3.864,2.799,7.015,6.244,7.015s6.244-3.15,6.244-7.015
				C50.029,26.175,47.23,23.027,43.785,23.027z"/>
			<path fill="#818285" d="M49.936,34.646h-1.102c-1.299,1.417-3.084,2.293-5.049,2.293s-3.749-0.876-5.048-2.293h-1.104
				c-3.499,0-6.334,2.615-6.334,5.857v6.434h24.97v-6.434C56.27,37.262,53.435,34.646,49.936,34.646z"/>
		</g>
		<path fill="#BDBEC0" d="M49.936,34.103h-0.434c0.675-1.174,1.07-2.561,1.07-4.056c0-4.171-3.045-7.563-6.787-7.563
			s-6.786,3.393-6.786,7.563c0,1.495,0.395,2.882,1.069,4.056h-0.435c-3.792,0-6.876,2.873-6.876,6.401v6.974h26.055v-6.974
			C56.813,36.976,53.727,34.103,49.936,34.103z M43.785,23.571c3.145,0,5.7,2.904,5.7,6.476c0,2.529-1.286,4.718-3.153,5.782
			c-0.798,0.37-1.66,0.566-2.547,0.566c-0.889,0-1.75-0.197-2.551-0.567c-1.865-1.065-3.151-3.253-3.151-5.781
			C38.083,26.476,40.641,23.571,43.785,23.571z M55.727,46.394H31.844v-5.89c0-2.933,2.597-5.317,5.79-5.317h0.87
			c0.645,0.663,1.379,1.188,2.168,1.568c0.934,0.541,1.991,0.851,3.113,0.851c1.121,0,2.178-0.31,3.109-0.85
			c0.789-0.38,1.525-0.905,2.172-1.569h0.869c3.193,0,5.791,2.385,5.791,5.317V46.394z"/>
	</g>
	<g>
		<g>
			<path fill="#6E6F72" d="M37.544,24.027c-3.445,0-6.244,3.147-6.244,7.02c0,3.864,2.799,7.015,6.244,7.015s6.245-3.15,6.245-7.015
				C43.789,27.175,40.989,24.027,37.544,24.027z"/>
			<path fill="#6E6F72" d="M43.694,35.646h-1.103c-1.299,1.417-3.08,2.293-5.048,2.293c-1.965,0-3.747-0.876-5.048-2.293h-1.104
				c-3.498,0-6.334,2.615-6.334,5.857v6.434h24.971v-6.434C50.029,38.262,47.193,35.646,43.694,35.646z"/>
		</g>
		<path fill="#BDBEC0" d="M43.694,35.103h-0.433c0.674-1.174,1.068-2.561,1.068-4.056c0-4.171-3.043-7.563-6.786-7.563
			c-3.741,0-6.786,3.393-6.786,7.563c0,1.495,0.395,2.882,1.068,4.056h-0.434c-3.791,0-6.876,2.873-6.876,6.401v6.974h26.055v-6.974
			C50.571,37.976,47.487,35.103,43.694,35.103z M37.544,24.571c3.144,0,5.702,2.904,5.702,6.476c0,2.529-1.287,4.718-3.155,5.782
			c-0.798,0.37-1.66,0.566-2.547,0.566c-0.888,0-1.751-0.197-2.549-0.567c-1.866-1.065-3.151-3.253-3.151-5.781
			C31.844,27.476,34.4,24.571,37.544,24.571z M49.484,47.394H25.603v-5.89c0-2.933,2.597-5.317,5.79-5.317h0.87
			c0.646,0.663,1.38,1.188,2.17,1.568c0.933,0.541,1.989,0.851,3.111,0.851c1.12,0,2.178-0.31,3.11-0.85
			c0.79-0.38,1.525-0.905,2.172-1.569h0.868c3.194,0,5.79,2.385,5.79,5.317V47.394z"/>
	</g>
	<g>
		<g>
			<path fill="#595A5C" d="M30.324,24.688c-3.445,0-6.244,3.147-6.244,7.023c0,3.865,2.799,7.015,6.244,7.015
				c3.443,0,6.245-3.149,6.245-7.015C36.569,27.836,33.768,24.688,30.324,24.688z"/>
			<path fill="#595A5C" d="M36.476,36.308h-1.103c-1.301,1.417-3.083,2.294-5.049,2.294c-1.967,0-3.748-0.877-5.047-2.294h-1.105
				c-3.496,0-6.332,2.619-6.332,5.858v6.433h24.969v-6.433C42.809,38.927,39.975,36.308,36.476,36.308z"/>
		</g>
		<path fill="#BDBEC0" d="M36.476,35.764h-0.433c0.672-1.173,1.068-2.561,1.068-4.052c0-4.174-3.045-7.563-6.787-7.563
			c-3.743,0-6.787,3.39-6.787,7.563c0,1.491,0.396,2.879,1.07,4.052h-0.436c-3.791,0-6.875,2.874-6.875,6.402v6.978h26.055v-6.978
			C43.352,38.638,40.267,35.764,36.476,35.764z M30.324,25.232c3.145,0,5.701,2.905,5.701,6.479c0,2.525-1.285,4.714-3.154,5.778
			c-0.797,0.374-1.659,0.571-2.547,0.571c-0.887,0-1.75-0.198-2.551-0.572c-1.864-1.065-3.15-3.253-3.15-5.777
			C24.623,28.138,27.182,25.232,30.324,25.232z M42.266,48.055H18.382v-5.889c0-2.929,2.599-5.314,5.79-5.314h0.871
			c0.646,0.663,1.381,1.184,2.169,1.568c0.934,0.537,1.991,0.847,3.112,0.847s2.179-0.31,3.109-0.846
			c0.79-0.384,1.525-0.905,2.173-1.569h0.869c3.193,0,5.79,2.386,5.79,5.314V48.055z"/>
	</g>
</g>
</svg>
