<?xml version="1.0" encoding="utf-8"?>
<!-- Generator: Adobe Illustrator 16.0.0, SVG Export Plug-In . SVG Version: 6.00 Build 0)  -->
<!DOCTYPE svg PUBLIC "-//W3C//DTD SVG 1.1//EN" "http://www.w3.org/Graphics/SVG/1.1/DTD/svg11.dtd">
<svg version="1.1" id="Layer_1" xmlns="http://www.w3.org/2000/svg" xmlns:xlink="http://www.w3.org/1999/xlink" x="0px" y="0px"
	 width="60.666px" height="60.667px" viewBox="0 0 60.666 60.667" enable-background="new 0 0 60.666 60.667" xml:space="preserve">
<path fill="#A8AAAD" d="M60.666,48.667c0,6.627-5.372,12-12,12H12c-6.628,0-12-5.373-12-12V12C0,5.373,5.372,0,12,0h36.666
	c6.628,0,12,5.373,12,12V48.667z"/>
<g>
	<path fill="#FFFFFF" d="M30.292,14.995c-4.688,0-8.501,4.287-8.501,9.556s3.813,9.556,8.501,9.556c4.688,0,8.502-4.287,8.502-9.556
		S34.98,14.995,30.292,14.995z"/>
	<g>
		<path fill="#FFFFFF" d="M35.261,32.289h-9.937c1.399,1.139,3.112,1.818,4.968,1.818S33.861,33.428,35.261,32.289z"/>
		<path fill="#FFFFFF" d="M38.669,32.289h-1.503c-1.771,1.93-4.198,3.125-6.874,3.125c-2.675,0-5.102-1.195-6.873-3.125h-1.506
			c-4.761,0-8.621,3.572-8.621,7.986v8.753h34v-8.753C47.292,35.861,43.433,32.289,38.669,32.289z"/>
	</g>
</g>
</svg>
